<svg xmlns="http://www.w3.org/2000/svg" width="644.894775390625" height="699.4056396484375" viewBox="-205.76649475097656 -267.3257751464844 644.894775390625 699.4056396484375"><title>Neo4j Graph Visualization</title><desc>Created using Neo4j (http://www.neo4j.com/)</desc><g class="layer relationships"><g class="relationship" transform="translate(299.8412470635592 31.816340302631225) rotate(398.5639001883507)"><path class="outline" fill="#A5ABB6" stroke="none" d="M 24.018736134675446,-6.953439040707552 L 24.277555179777966,-5.987513214418485 A 94.65221871573381 94.65221871573381 0 0 1 37.60021808993298,-8.550696987022604 L 37.4821528812531,-9.543702831164197 A 95.65221871573381 95.65221871573381 0 0 0 24.018736134675446,-6.953439040707552 Z M 56.88355117635952,-9.868433920379744 L 56.79878367968663,-8.872033161895587 A 94.65221871573381 94.65221871573381 0 0 1 70.19976274158489,-6.756136601965214 L 69.52071651358334,-3.833997621656978 L 77.13126140030438,-5.658718566679625 L 71.10515771225364,-10.652321909042863 L 70.42611148425209,-7.730182928734627 A 95.65221871573381 95.65221871573381 0 0 0 56.88355117635952,-9.868433920379744"/><text text-anchor="middle" pointer-events="none" font-size="8px" fill="#000000" x="47.182963908870036" y="-6.699383984441312" font-family="sans-serif">trek</text></g><g class="relationship" transform="translate(379.19171070884863 95.07916825843547) rotate(433.84220237773945)"><path class="outline" fill="#A5ABB6" stroke="none" d="M 21.40063509461097,-12.933012701892217 L 21.90063509461097,-12.06698729810778 A 63.778558723021476 63.778558723021476 0 0 1 42.35572550692673,-19.57836513244228 L 42.17644599390337,-20.562163311038937 A 64.77855872302148 64.77855872302148 0 0 0 21.40063509461097,-12.933012701892217 Z M 61.580756557109076,-21.14148965795161 L 61.46048771731752,-20.14874829879748 A 63.778558723021476 63.778558723021476 0 0 1 82.32725835084318,-13.871057316121227 L 80.98492585857157,-11.188121707465683 L 88.81116351975139,-11.186104102263402 L 84.11703500720533,-17.44830479432862 L 82.77470251493372,-14.765369185673077 A 64.77855872302148 64.77855872302148 0 0 0 61.580756557109076,-21.14148965795161"/><text text-anchor="middle" pointer-events="none" font-size="8px" fill="#000000" x="51.87169750419724" y="-18.08306561810403" font-family="sans-serif">trek</text></g><g class="relationship" transform="translate(410.12822101464303 201.85683472041623) rotate(507.7983943753686)"><path class="outline" fill="#A5ABB6" stroke="none" d="M 21.40063509461097,12.933012701892217 L 21.90063509461097,12.06698729810778 A 70.98805066478478 70.98805066478478 0 0 0 45.84637727779562,20.631951300835567 L 45.68369802345547,21.61863030649411 A 71.98805066478478 71.98805066478478 0 0 1 21.40063509461097,12.933012701892217 Z M 65.0878757452467,22.165323192138956 L 64.9810077963691,21.171049969376384 A 70.98805066478478 70.98805066478478 0 0 0 89.37100059817915,13.967895924152558 L 88.01966020194095,11.289486109823391 L 95.84584689765357,11.261169968651627 L 91.17278779316342,17.53910900992478 L 89.82144739692522,14.860699195595611 A 71.98805066478478 71.98805066478478 0 0 1 65.0878757452467,22.165323192138956"/><text text-anchor="middle" pointer-events="none" font-size="8px" fill="#000000" x="55.38135652036981" y="25.049226957472243" transform="rotate(180 55.38135652036981 22.049226957472243)" font-family="sans-serif">trek</text></g><g class="relationship" transform="translate(310.1387843073137 264.8274568281843) rotate(484.7328719830276)"><path class="outline" fill="#A5ABB6" stroke="none" d="M 25 0.5 L 51.50880850086891 0.5 L 51.50880850086891 -0.5 L 25 -0.5 Z M 70.84474600086891 0.5 L 97.35355450173782 0.5 L 97.35355450173782 3.5 L 104.35355450173782 0 L 97.35355450173782 -3.5 L 97.35355450173782 -0.5 L 70.84474600086891 -0.5 Z"/><text text-anchor="middle" pointer-events="none" font-size="8px" fill="#000000" x="61.17677725086891" y="3" transform="rotate(180 61.17677725086891 0)" font-family="sans-serif">trek</text></g><g class="relationship" transform="translate(299.8412470635592 31.816340302631225) rotate(398.5639001883507)"><path class="outline" fill="#A5ABB6" stroke="none" d="M 24.018736134675446,6.953439040707552 L 24.277555179777966,5.987513214418485 A 94.65221871573381 94.65221871573381 0 0 0 36.27981415452598,8.38428314967139 L 36.14779888790427,9.375530832835793 A 95.65221871573381 95.65221871573381 0 0 1 24.018736134675446,6.953439040707552 Z M 58.22278574016729,9.745011136055084 L 58.12401716143077,8.749900706075394 A 94.65221871573381 94.65221871573381 0 0 0 70.19976274158489,6.756136601965214 L 69.52071651358334,3.833997621656978 L 77.13126140030438,5.658718566679625 L 71.10515771225364,10.652321909042863 L 70.42611148425209,7.730182928734627 A 95.65221871573381 95.65221871573381 0 0 1 58.22278574016729,9.745011136055084"/><text text-anchor="middle" pointer-events="none" font-size="8px" fill="#000000" x="47.18296390887006" y="12.699383984441326" font-family="sans-serif">road</text></g><g class="relationship" transform="translate(379.19171070884863 95.07916825843547) rotate(433.84220237773945)"><path class="outline" fill="#A5ABB6" stroke="none" d="M 25 0.5 L 41.0786207542738 0.5 L 41.0786207542738 -0.5 L 25 -0.5 Z M 63.0903395042738 0.5 L 79.1689602585476 0.5 L 79.1689602585476 3.5 L 86.1689602585476 0 L 79.1689602585476 -3.5 L 79.1689602585476 -0.5 L 63.0903395042738 -0.5 Z"/><text text-anchor="middle" pointer-events="none" font-size="8px" fill="#000000" x="52.0844801292738" y="3" font-family="sans-serif">road</text></g><g class="relationship" transform="translate(379.19171070884863 95.07916825843547) rotate(433.84220237773945)"><path class="outline" fill="#A5ABB6" stroke="none" d="M 21.40063509461097,12.933012701892217 L 21.90063509461097,12.06698729810778 A 63.778558723021476 63.778558723021476 0 0 0 29.46655035421771,15.791412945886016 L 29.08517823498347,16.715834552443752 A 64.77855872302148 64.77855872302148 0 0 1 21.40063509461097,12.933012701892217 Z M 74.87817117765321,18.083009502012885 L 74.55262739993967,17.13748253317911 A 63.778558723021476 63.778558723021476 0 0 0 82.32725835084318,13.871057316121227 L 80.98492585857157,11.188121707465683 L 88.81116351975139,11.186104102263402 L 84.11703500720533,17.44830479432862 L 82.77470251493372,14.765369185673077 A 64.77855872302148 64.77855872302148 0 0 1 74.87817117765321,18.083009502012885"/><text text-anchor="middle" pointer-events="none" font-size="8px" fill="#000000" x="51.87169750419724" y="24.08306561810403" font-family="sans-serif">twowheeler</text></g><g class="relationship" transform="translate(410.12822101464303 201.85683472041623) rotate(507.7983943753686)"><path class="outline" fill="#A5ABB6" stroke="none" d="M 25 0.5 L 44.57710496686497 0.5 L 44.57710496686497 -0.5 L 25 -0.5 Z M 66.58882371686497 0.5 L 86.16592868372994 0.5 L 86.16592868372994 3.5 L 93.16592868372994 0 L 86.16592868372994 -3.5 L 86.16592868372994 -0.5 L 66.58882371686497 -0.5 Z"/><text text-anchor="middle" pointer-events="none" font-size="8px" fill="#000000" x="55.58296434186497" y="3" transform="rotate(180 55.58296434186497 0)" font-family="sans-serif">road</text></g><g class="relationship" transform="translate(410.12822101464303 201.85683472041623) rotate(507.7983943753686)"><path class="outline" fill="#A5ABB6" stroke="none" d="M 21.40063509461097,-12.933012701892217 L 21.90063509461097,-12.06698729810778 A 70.98805066478478 70.98805066478478 0 0 1 32.84309144497226,-17.196767382767987 L 32.4972364911862,-18.135055372109022 A 71.98805066478478 71.98805066478478 0 0 0 21.40063509461097,-12.933012701892217 Z M 78.44955640785335,-19.42971504475807 L 78.15707875654294,-18.473442686335034 A 70.98805066478478 70.98805066478478 0 0 1 89.37100059817915,-13.967895924152558 L 88.01966020194095,-11.289486109823391 L 95.84584689765357,-11.261169968651627 L 91.17278779316342,-17.53910900992478 L 89.82144739692522,-14.860699195595611 A 71.98805066478478 71.98805066478478 0 0 0 78.44955640785335,-19.42971504475807"/><text text-anchor="middle" pointer-events="none" font-size="8px" fill="#000000" x="55.381356520369806" y="-19.049226957472243" transform="rotate(180 55.381356520369806 -22.049226957472243)" font-family="sans-serif">twowheeler</text></g><g class="relationship" transform="translate(10.28818497391887 -172.05250059286254) rotate(227.20198864060342)"><path class="outline" fill="#A5ABB6" stroke="none" d="M 24.018736134675446,-6.953439040707552 L 24.277555179777966,-5.987513214418485 A 70.191362634056 70.191362634056 0 0 1 30.255590885158593,-7.3128219643571555 L 30.081939522817088,-8.297629155820005 A 71.191362634056 71.191362634056 0 0 0 24.018736134675446,-6.953439040707552 Z M 52.1559817413793,-8.713713962664286 L 52.01956680632418,-7.723062174449112 A 70.191362634056 70.191362634056 0 0 1 58.04330106833244,-6.623980868003833 L 57.376600044796746,-3.699000569742584 L 64.97937193486463,-5.555841862797427 L 58.93223576638003,-10.52395459901883 L 58.26553474284434,-7.598974300757582 A 71.191362634056 71.191362634056 0 0 0 52.1559817413793,-8.713713962664286"/><text text-anchor="middle" pointer-events="none" font-size="8px" fill="#000000" x="41.112155974773955" y="-5.866670784850484" transform="rotate(180 41.112155974773955 -8.866670784850484)" font-family="sans-serif">road</text></g><g class="relationship" transform="translate(-50.42047890484751 -237.61645847635097) rotate(365.2413062075095)"><path class="outline" fill="#A5ABB6" stroke="none" d="M 21.40063509461097,-12.933012701892217 L 21.90063509461097,-12.06698729810778 A 81.25597707836134 81.25597707836134 0 0 1 50.84224768410975,-22.108455287769047 L 50.69842594483743,-23.09805889897541 A 82.25597707836134 82.25597707836134 0 0 0 21.40063509461097,-12.933012701892217 Z M 70.10071354566283,-23.603957405661234 L 70.00865835185414,-22.608203499671987 A 81.25597707836134 81.25597707836134 0 0 1 99.43423514025298,-14.088611412132218 L 98.07166664375197,-11.415896108860478 L 105.89766559730388,-11.354737470841801 L 101.25099313558766,-17.65223181649454 L 99.88842463908665,-14.9795165132228 A 82.25597707836134 82.25597707836134 0 0 0 70.10071354566283,-23.603957405661234"/><text text-anchor="middle" pointer-events="none" font-size="8px" fill="#000000" x="60.397628819985016" y="-20.42544677925177" font-family="sans-serif">trek</text></g><g class="relationship" transform="translate(77.21390860766437 -225.90803569855) rotate(462.53217174481085)"><path class="outline" fill="#A5ABB6" stroke="none" d="M 21.40063509461097,12.933012701892217 L 21.90063509461097,12.06698729810778 A 73.26717680295425 73.26717680295425 0 0 0 45.64290385297846,20.739901348228557 L 45.46695440050018,21.72430055087584 A 74.26717680295425 74.26717680295425 0 0 1 21.40063509461097,12.933012701892217 Z M 67.53729218923937,22.335207679101458 L 67.41606678279852,21.342582673959413 A 73.26717680295425 73.26717680295425 0 0 0 91.60174663094271,13.996314628318427 L 90.24776284538808,11.319240122733053 L 98.07391777490102,11.283198212955202 L 93.40705834501554,17.565747302432257 L 92.05307455946091,14.888672796846883 A 74.26717680295425 74.26717680295425 0 0 1 67.53729218923937,22.335207679101458"/><text text-anchor="middle" pointer-events="none" font-size="8px" fill="#000000" x="56.493129222454726" y="25.354684382004606" transform="rotate(180 56.493129222454726 22.354684382004606)" font-family="sans-serif">road</text></g><g class="relationship" transform="translate(51.09229733144123 -108.39336728460191) rotate(467.29123076284566)"><path class="outline" fill="#A5ABB6" stroke="none" d="M 25 0.5 L 39.81482816761959 0.5 L 39.81482816761959 -0.5 L 25 -0.5 Z M 59.15076566761959 0.5 L 73.96559383523918 0.5 L 73.96559383523918 3.5 L 80.96559383523918 0 L 73.96559383523918 -3.5 L 73.96559383523918 -0.5 L 59.15076566761959 -0.5 Z"/><text text-anchor="middle" pointer-events="none" font-size="8px" fill="#000000" x="49.48279691761959" y="3" transform="rotate(180 49.48279691761959 0)" font-family="sans-serif">trek</text></g><g class="relationship" transform="translate(10.28818497391887 -172.05250059286254) rotate(227.20198864060342)"><path class="outline" fill="#A5ABB6" stroke="none" d="M 24.018736134675446,6.953439040707552 L 24.277555179777966,5.987513214418485 A 70.191362634056 70.191362634056 0 0 0 31.56594083181902,7.531112053449874 L 31.41095772006401,8.519029172985086 A 71.191362634056 71.191362634056 0 0 1 24.018736134675446,6.953439040707552 Z M 50.81956402170027,8.8848718276368 L 50.701921275717424,7.891815845167727 A 70.191362634056 70.191362634056 0 0 0 58.04330106833244,6.623980868003833 L 57.376600044796746,3.699000569742584 L 64.97937193486463,5.555841862797427 L 58.93223576638003,10.52395459901883 L 58.26553474284434,7.598974300757582 A 71.191362634056 71.191362634056 0 0 1 50.81956402170027,8.8848718276368"/><text text-anchor="middle" pointer-events="none" font-size="8px" fill="#000000" x="41.11215597477398" y="11.866670784850484" transform="rotate(180 41.11215597477398 8.866670784850484)" font-family="sans-serif">trek</text></g><g class="relationship" transform="translate(-50.42047890484751 -237.61645847635097) rotate(365.2413062075095)"><path class="outline" fill="#A5ABB6" stroke="none" d="M 25 0.5 L 49.57928718728418 0.5 L 49.57928718728418 -0.5 L 25 -0.5 Z M 71.59100593728418 0.5 L 96.17029312456836 0.5 L 96.17029312456836 3.5 L 103.17029312456836 0 L 96.17029312456836 -3.5 L 96.17029312456836 -0.5 L 71.59100593728418 -0.5 Z"/><text text-anchor="middle" pointer-events="none" font-size="8px" fill="#000000" x="60.58514656228418" y="3" font-family="sans-serif">road</text></g><g class="relationship" transform="translate(-50.42047890484751 -237.61645847635097) rotate(365.2413062075095)"><path class="outline" fill="#A5ABB6" stroke="none" d="M 21.40063509461097,12.933012701892217 L 21.90063509461097,12.06698729810778 A 81.25597707836134 81.25597707836134 0 0 0 37.722514232995835,19.07418631594021 L 37.417230729028205,20.02644782529846 A 82.25597707836134 82.25597707836134 0 0 1 21.40063509461097,12.933012701892217 Z M 83.52393284486485,21.228641722662218 L 83.26868927525686,20.26176493621331 A 81.25597707836134 81.25597707836134 0 0 0 99.43423514025298,14.088611412132218 L 98.07166664375197,11.415896108860478 L 105.89766559730388,11.354737470841801 L 101.25099313558766,17.65223181649454 L 99.88842463908665,14.9795165132228 A 82.25597707836134 82.25597707836134 0 0 1 83.52393284486485,21.228641722662218"/><text text-anchor="middle" pointer-events="none" font-size="8px" fill="#000000" x="60.397628819985044" y="26.425446779251786" font-family="sans-serif">twowheeler</text></g><g class="relationship" transform="translate(77.21390860766437 -225.90803569855) rotate(462.53217174481085)"><path class="outline" fill="#A5ABB6" stroke="none" d="M 25 0.5 L 47.02346724405624 0.5 L 47.02346724405624 -0.5 L 25 -0.5 Z M 66.35940474405623 0.5 L 88.38287198811248 0.5 L 88.38287198811248 3.5 L 95.38287198811248 0 L 88.38287198811248 -3.5 L 88.38287198811248 -0.5 L 66.35940474405623 -0.5 Z"/><text text-anchor="middle" pointer-events="none" font-size="8px" fill="#000000" x="56.69143599405624" y="3" transform="rotate(180 56.69143599405624 0)" font-family="sans-serif">trek</text></g><g class="relationship" transform="translate(77.21390860766437 -225.90803569855) rotate(462.53217174481085)"><path class="outline" fill="#A5ABB6" stroke="none" d="M 21.40063509461097,-12.933012701892217 L 21.90063509461097,-12.06698729810778 A 73.26717680295425 73.26717680295425 0 0 1 33.91999056125435,-17.62458176174428 L 33.584038856700055,-18.566460974917106 A 74.26717680295425 74.26717680295425 0 0 0 21.40063509461097,-12.933012701892217 Z M 79.57669691151801,-19.839538121297196 L 79.29336214209141,-18.880517053523405 A 73.26717680295425 73.26717680295425 0 0 1 91.60174663094271,-13.996314628318427 L 90.24776284538808,-11.319240122733053 L 98.07391777490102,-11.283198212955202 L 93.40705834501554,-17.565747302432257 L 92.05307455946091,-14.888672796846883 A 74.26717680295425 74.26717680295425 0 0 0 79.57669691151801,-19.839538121297196"/><text text-anchor="middle" pointer-events="none" font-size="8px" fill="#000000" x="56.493129222454705" y="-19.354684382004606" transform="rotate(180 56.493129222454705 -22.354684382004606)" font-family="sans-serif">twowheeler</text></g><g class="relationship" transform="translate(299.8412470635592 31.816340302631225) rotate(465.2821346265725)"><path class="outline" fill="#A5ABB6" stroke="none" d="M 21.40063509461097,12.933012701892217 L 21.90063509461097,12.06698729810778 A 72.7199352474707 72.7199352474707 0 0 0 26.675476868721116,14.592109611759824 L 26.24113756764585,15.492858950666843 A 73.7199352474707 73.7199352474707 0 0 1 21.40063509461097,12.933012701892217 Z M 86.54184654989905,17.169042197827835 L 86.15821566719933,16.24555568150015 A 72.7199352474707 72.7199352474707 0 0 0 91.06595795010787,13.989580869751919 L 89.7126005060952,11.312189671451705 L 97.53876365347716,11.277978700105695 L 92.87043454212478,17.55943580081887 L 91.51707709811211,14.882044602518658 A 73.7199352474707 73.7199352474707 0 0 1 86.54184654989905,17.169042197827835"/><text text-anchor="middle" pointer-events="none" font-size="8px" fill="#000000" x="56.226088647172645" y="25.281339951091752" transform="rotate(180 56.226088647172645 22.281339951091752)" font-family="sans-serif">PublicTransport</text></g><g class="relationship" transform="translate(268.252015350374 147.42874667081165) rotate(430.36407215158965)"><path class="outline" fill="#A5ABB6" stroke="none" d="M 25 0.5 L 49.15569962780581 0.5 L 49.15569962780581 -0.5 L 25 -0.5 Z M 68.4916371278058 0.5 L 92.64733675561162 0.5 L 92.64733675561162 3.5 L 99.64733675561162 0 L 92.64733675561162 -3.5 L 92.64733675561162 -0.5 L 68.4916371278058 -0.5 Z"/><text text-anchor="middle" pointer-events="none" font-size="8px" fill="#000000" x="58.82366837780581" y="3" font-family="sans-serif">trek</text></g><g class="relationship" transform="translate(299.8412470635592 31.816340302631225) rotate(465.2821346265725)"><path class="outline" fill="#A5ABB6" stroke="none" d="M 25 0.5 L 45.419319111322814 0.5 L 45.419319111322814 -0.5 L 25 -0.5 Z M 67.4310378613228 0.5 L 87.85035697264563 0.5 L 87.85035697264563 3.5 L 94.85035697264563 0 L 87.85035697264563 -3.5 L 87.85035697264563 -0.5 L 67.4310378613228 -0.5 Z"/><text text-anchor="middle" pointer-events="none" font-size="8px" fill="#000000" x="56.425178486322814" y="3" transform="rotate(180 56.425178486322814 0)" font-family="sans-serif">road</text></g><g class="relationship" transform="translate(299.8412470635592 31.816340302631225) rotate(465.2821346265725)"><path class="outline" fill="#A5ABB6" stroke="none" d="M 21.40063509461097,-12.933012701892217 L 21.90063509461097,-12.06698729810778 A 72.7199352474707 72.7199352474707 0 0 1 46.687195289577495,-20.882748260778484 L 46.5280448806919,-21.870002608629918 A 73.7199352474707 73.7199352474707 0 0 0 21.40063509461097,-12.933012701892217 Z M 65.93200736106024,-22.409375982294662 L 65.82794589360289,-21.4148051145378 A 72.7199352474707 72.7199352474707 0 0 1 91.06595795010787,-13.989580869751919 L 89.7126005060952,-11.312189671451705 L 97.53876365347716,-11.277978700105695 L 92.87043454212478,-17.55943580081887 L 91.51707709811211,-14.882044602518658 A 73.7199352474707 73.7199352474707 0 0 0 65.93200736106024,-22.409375982294662"/><text text-anchor="middle" pointer-events="none" font-size="8px" fill="#000000" x="56.22608864717265" y="-19.281339951091752" transform="rotate(180 56.22608864717265 -22.281339951091752)" font-family="sans-serif">trek</text></g><g class="relationship" transform="translate(268.252015350374 147.42874667081165) rotate(511.85067334473547)"><path class="outline" fill="#A5ABB6" stroke="none" d="M 24.018736134675446,-6.953439040707552 L 24.277555179777966,-5.987513214418485 A 162.31143150042453 162.31143150042453 0 0 1 54.59200776963767,-11.096275628612972 L 54.51995593069943,-12.093676517175624 A 163.31143150042453 163.31143150042453 0 0 0 24.018736134675446,-6.953439040707552 Z M 73.90230704853442,-12.340484163638934 L 73.85567551705726,-11.341572005202494 A 162.31143150042453 162.31143150042453 0 0 1 104.2903840762041,-7.006366802754556 L 103.5879651738208,-4.089757866751196 L 111.21287474394249,-5.8534908531941 L 105.22694261271516,-10.895178717425702 L 104.52452371033186,-7.978569781422342 A 163.31143150042453 163.31143150042453 0 0 0 73.90230704853442,-12.340484163638934"/><text text-anchor="middle" pointer-events="none" font-size="8px" fill="#000000" x="64.21383276528705" y="-9.00494317912134" transform="rotate(180 64.21383276528705 -12.00494317912134)" font-family="sans-serif">trek</text></g><g class="relationship" transform="translate(148.76298835187546 211.36220414973204) rotate(452.03030496993557)"><path class="outline" fill="#A5ABB6" stroke="none" d="M 24.018736134675446,-6.953439040707552 L 24.277555179777966,-5.987513214418485 A 106.2295910815496 106.2295910815496 0 0 1 40.48274457490681,-9.005650009257266 L 40.37647426156669,-9.999987286292878 A 107.2295910815496 107.2295910815496 0 0 0 24.018736134675446,-6.953439040707552 Z M 59.77399092839404,-10.308193044296175 L 59.69936419203754,-9.310981506947769 A 106.2295910815496 106.2295910815496 0 0 1 75.99225910435503,-6.809204454423856 L 75.30825583315843,-3.8882218243843782 L 82.92188578631324,-5.700027259971696 L 76.90426346595049,-10.703847961143161 L 76.22026019475389,-7.782865331103682 A 107.2295910815496 107.2295910815496 0 0 0 59.77399092839404,-10.308193044296175"/><text text-anchor="middle" pointer-events="none" font-size="8px" fill="#000000" x="50.076191670306024" y="-7.093728932153695" transform="rotate(180 50.076191670306024 -10.093728932153695)" font-family="sans-serif">trek</text></g><g class="relationship" transform="translate(144.96285057243605 318.55827490320485) rotate(389.88719107975805)"><path class="outline" fill="#A5ABB6" stroke="none" d="M 24.018736134675446,6.953439040707552 L 24.277555179777966,5.987513214418485 A 102.71954539853934 102.71954539853934 0 0 0 39.607368569270704,8.869022761560473 L 39.49778902216261,9.863000790923081 A 103.71954539853934 103.71954539853934 0 0 1 24.018736134675446,6.953439040707552 Z M 58.89646822612825,10.176043332127762 L 58.81901765148421,9.1790471393129 A 102.71954539853934 102.71954539853934 0 0 0 74.23382438498129,6.793673123383073 L 73.55127187383708,3.8723511504518577 L 81.16400107367816,5.687937592868444 L 75.14389439984025,10.68876908729136 L 74.46134188869604,7.767447114360145 A 103.71954539853934 103.71954539853934 0 0 1 58.89646822612825,10.176043332127762"/><text text-anchor="middle" pointer-events="none" font-size="8px" fill="#000000" x="49.19786065194941" y="12.974159624576203" font-family="sans-serif">trek</text></g><g class="relationship" transform="translate(268.252015350374 147.42874667081165) rotate(511.85067334473547)"><path class="outline" fill="#A5ABB6" stroke="none" d="M 24.018736134675446,6.953439040707552 L 24.277555179777966,5.987513214418485 A 162.31143150042453 162.31143150042453 0 0 0 41.160521498560655,9.561530784005527 L 41.00571833307126,10.54947611647816 A 163.31143150042453 163.31143150042453 0 0 1 24.018736134675446,6.953439040707552 Z M 87.45148298795996,11.140899199930175 L 87.32188619302916,10.149332424194085 A 162.31143150042453 162.31143150042453 0 0 0 104.2903840762041,7.006366802754556 L 103.5879651738208,4.089757866751196 L 111.21287474394249,5.8534908531941 L 105.22694261271516,10.895178717425702 L 104.52452371033186,7.978569781422342 A 163.31143150042453 163.31143150042453 0 0 1 87.45148298795996,11.140899199930175"/><text text-anchor="middle" pointer-events="none" font-size="8px" fill="#000000" x="64.21383276528711" y="15.00494317912134" transform="rotate(180 64.21383276528711 12.00494317912134)" font-family="sans-serif">twowheeler</text></g><g class="relationship" transform="translate(148.76298835187546 211.36220414973204) rotate(452.03030496993557)"><path class="outline" fill="#A5ABB6" stroke="none" d="M 24.018736134675446,6.953439040707552 L 24.277555179777966,5.987513214418485 A 106.2295910815496 106.2295910815496 0 0 0 27.185448937703836,6.722842369955018 L 26.954003562482935,7.69569027085673 A 107.2295910815496 107.2295910815496 0 0 1 24.018736134675446,6.953439040707552 Z M 73.26289325629725,8.431488914338814 L 73.06247193104183,7.451779114253682 A 106.2295910815496 106.2295910815496 0 0 0 75.99225910435503,6.809204454423856 L 75.30825583315843,3.8882218243843782 L 82.92188578631324,5.700027259971696 L 76.90426346595049,10.703847961143161 L 76.22026019475389,7.782865331103682 A 107.2295910815496 107.2295910815496 0 0 1 73.26289325629725,8.431488914338814"/><text text-anchor="middle" pointer-events="none" font-size="8px" fill="#000000" x="50.07619167030605" y="13.093728932153695" transform="rotate(180 50.07619167030605 10.093728932153695)" font-family="sans-serif">twowheeler</text></g><g class="relationship" transform="translate(144.96285057243605 318.55827490320485) rotate(389.88719107975805)"><path class="outline" fill="#A5ABB6" stroke="none" d="M 24.018736134675446,-6.953439040707552 L 24.277555179777966,-5.987513214418485 A 102.71954539853934 102.71954539853934 0 0 1 26.325549677385148,-6.513739836854938 L 26.086668361656926,-7.484788608542516 A 103.71954539853934 103.71954539853934 0 0 0 24.018736134675446,-6.953439040707552 Z M 72.37734177056792,-8.23179565400359 L 72.16991691294145,-7.253544700291499 A 102.71954539853934 102.71954539853934 0 0 1 74.23382438498129,-6.793673123383073 L 73.55127187383708,-3.8723511504518577 L 81.16400107367816,-5.687937592868444 L 75.14389439984025,-10.68876908729136 L 74.46134188869604,-7.767447114360145 A 103.71954539853934 103.71954539853934 0 0 0 72.37734177056792,-8.23179565400359"/><text text-anchor="middle" pointer-events="none" font-size="8px" fill="#000000" x="49.19786065194939" y="-6.9741596245762025" font-family="sans-serif">twowheeler</text></g><g class="relationship" transform="translate(10.28818497391887 -172.05250059286254) rotate(510.8504817532039)"><path class="outline" fill="#A5ABB6" stroke="none" d="M 21.40063509461097,12.933012701892217 L 21.90063509461097,12.06698729810778 A 59.290517609170976 59.290517609170976 0 0 0 23.182669411135045,12.786129265612466 L 22.70429233446614,13.664283792172405 A 60.290517609170976 60.290517609170976 0 0 1 21.40063509461097,12.933012701892217 Z M 77.0522874812033,15.349284201902101 L 76.6292293521066,14.443181658364551 A 59.290517609170976 59.290517609170976 0 0 0 77.95335094804831,13.804840717070073 L 76.61717824554687,11.118832059397878 L 84.44339993303367,11.134772520845397 L 79.73491455138357,17.38618559396633 L 78.39874184888212,14.700176936294136 A 60.290517609170976 60.290517609170976 0 0 1 77.0522874812033,15.349284201902101"/><text text-anchor="middle" pointer-events="none" font-size="8px" fill="#000000" x="49.693044311897346" y="23.48169456134608" transform="rotate(180 49.693044311897346 20.48169456134608)" font-family="sans-serif">PublicTrans…</text></g><g class="relationship" transform="translate(-83.00917413592069 -120.01819327535962) rotate(364.95440181777906)"><path class="outline" fill="#A5ABB6" stroke="none" d="M 25 0.5 L 54.13422517602868 0.5 L 54.13422517602868 -0.5 L 25 -0.5 Z M 73.47016267602868 0.5 L 102.60438785205736 0.5 L 102.60438785205736 3.5 L 109.60438785205736 0 L 102.60438785205736 -3.5 L 102.60438785205736 -0.5 L 73.47016267602868 -0.5 Z"/><text text-anchor="middle" pointer-events="none" font-size="8px" fill="#000000" x="63.80219392602868" y="3" font-family="sans-serif">trek</text></g><g class="relationship" transform="translate(10.28818497391887 -172.05250059286254) rotate(510.8504817532039)"><path class="outline" fill="#A5ABB6" stroke="none" d="M 25 0.5 L 38.90754333181765 0.5 L 38.90754333181765 -0.5 L 25 -0.5 Z M 60.91926208181765 0.5 L 74.8268054136353 0.5 L 74.8268054136353 3.5 L 81.8268054136353 0 L 74.8268054136353 -3.5 L 74.8268054136353 -0.5 L 60.91926208181765 -0.5 Z"/><text text-anchor="middle" pointer-events="none" font-size="8px" fill="#000000" x="49.91340270681765" y="3" transform="rotate(180 49.91340270681765 0)" font-family="sans-serif">road</text></g><g class="relationship" transform="translate(10.28818497391887 -172.05250059286254) rotate(510.8504817532039)"><path class="outline" fill="#A5ABB6" stroke="none" d="M 21.40063509461097,-12.933012701892217 L 21.90063509461097,-12.06698729810778 A 59.290517609170976 59.290517609170976 0 0 1 40.19169360219829,-18.91308500682748 L 40.00019248608656,-19.89457740238027 A 60.290517609170976 60.290517609170976 0 0 0 21.40063509461097,-12.933012701892217 Z M 59.403650565491276,-20.496160491612827 L 59.27331901456262,-19.504690024663596 A 59.290517609170976 59.290517609170976 0 0 1 77.95335094804831,-13.804840717070073 L 76.61717824554687,-11.118832059397878 L 84.44339993303367,-11.134772520845397 L 79.73491455138357,-17.38618559396633 L 78.39874184888212,-14.700176936294136 A 60.290517609170976 60.290517609170976 0 0 0 59.403650565491276,-20.496160491612827"/><text text-anchor="middle" pointer-events="none" font-size="8px" fill="#000000" x="49.69304431189736" y="-17.48169456134609" transform="rotate(180 49.69304431189736 -20.48169456134609)" font-family="sans-serif">trek</text></g><g class="relationship" transform="translate(-83.00917413592069 -120.01819327535962) rotate(492.1073715882948)"><path class="outline" fill="#A5ABB6" stroke="none" d="M 24.018736134675446,-6.953439040707552 L 24.277555179777966,-5.987513214418485 A 160.24320343560663 160.24320343560663 0 0 1 40.639826245220846,-9.467807327758834 L 40.48311618642562,-10.455451979175734 A 161.24320343560663 161.24320343560663 0 0 0 24.018736134675446,-6.953439040707552 Z M 86.92656660933065,-11.051232542099598 L 86.79524312976065,-10.059892971763759 A 160.24320343560663 160.24320343560663 0 0 1 103.24140626878508,-7.000468264572203 L 102.53953828210258,-4.083726704325519 L 110.16411457380775,-5.848899889020821 L 104.1772302510284,-10.889457011567782 L 103.4753622643459,-7.972715451321098 A 161.24320343560663 161.24320343560663 0 0 0 86.92656660933065,-11.051232542099598"/><text text-anchor="middle" pointer-events="none" font-size="8px" fill="#000000" x="63.6896901278499" y="-8.934443663051297" transform="rotate(180 63.6896901278499 -11.934443663051297)" font-family="sans-serif">twowheeler</text></g><g class="relationship" transform="translate(-173.1744748436639 -20.25608332396141) rotate(397.38146582067714)"><path class="outline" fill="#A5ABB6" stroke="none" d="M 24.018736134675446,-6.953439040707552 L 24.277555179777966,-5.987513214418485 A 96.22771638672324 96.22771638672324 0 0 1 24.742632743092976,-6.110884967797574 L 24.48864679162271,-7.078092875362302 A 97.22771638672324 97.22771638672324 0 0 0 24.018736134675446,-6.953439040707552 Z M 70.73952776495457,-7.846641367412616 L 70.51781725154676,-6.871528836345334 A 96.22771638672324 96.22771638672324 0 0 1 70.98673704080564,-6.763677268566887 L 70.30698643426122,-3.841702061125439 L 77.91797095925975,-5.664588387870154 L 71.89307118286486,-10.659644211822153 L 71.21332057632044,-7.737669004380704 A 97.22771638672324 97.22771638672324 0 0 0 70.73952776495457,-7.846641367412616"/><text text-anchor="middle" pointer-events="none" font-size="8px" fill="#000000" x="47.57602326033921" y="-6.7530415313378995" font-family="sans-serif">twowheeler</text></g><g class="relationship" transform="translate(-91.91137877927314 41.83260199082565) rotate(336.25653953584765)"><path class="outline" fill="#A5ABB6" stroke="none" d="M 24.018736134675446,6.953439040707552 L 24.277555179777966,5.987513214418485 A 135.2068837972911 135.2068837972911 0 0 0 34.362962610393026,8.280346822145503 L 34.17873597617496,9.263230613468096 A 136.2068837972911 136.2068837972911 0 0 1 24.018736134675446,6.953439040707552 Z M 80.58270170370834,9.917076396508094 L 80.42624096270832,8.929392217974424 A 135.2068837972911 135.2068837972911 0 0 0 90.5722451440237,6.921625262633966 L 89.87774115437172,4.003121500711174 L 97.49783792011887,5.787533247099815 L 91.49825046355967,10.812963611864355 L 90.8037464739077,7.894459849941563 A 136.2068837972911 136.2068837972911 0 0 1 80.58270170370834,9.917076396508094"/><text text-anchor="middle" pointer-events="none" font-size="8px" fill="#000000" x="57.359710862944695" y="14.081106677522143" font-family="sans-serif">twowheeler</text></g><g class="relationship" transform="translate(-83.00917413592069 -120.01819327535962) rotate(492.1073715882948)"><path class="outline" fill="#A5ABB6" stroke="none" d="M 24.018736134675446,6.953439040707552 L 24.277555179777966,5.987513214418485 A 160.24320343560663 160.24320343560663 0 0 0 54.06852642546995,11.021207244796244 L 53.99561836196899,12.018545910584635 A 161.24320343560663 161.24320343560663 0 0 1 24.018736134675446,6.953439040707552 Z M 73.37841452331813,12.267190081138153 L 73.33111413307742,11.268309371001493 A 160.24320343560663 160.24320343560663 0 0 0 103.24140626878508,7.000468264572203 L 102.53953828210258,4.083726704325519 L 110.16411457380775,5.848899889020821 L 104.1772302510284,10.889457011567782 L 103.4753622643459,7.972715451321098 A 161.24320343560663 161.24320343560663 0 0 1 73.37841452331813,12.267190081138153"/><text text-anchor="middle" pointer-events="none" font-size="8px" fill="#000000" x="63.68969012784993" y="14.934443663051297" transform="rotate(180 63.68969012784993 11.934443663051297)" font-family="sans-serif">trek</text></g><g class="relationship" transform="translate(-173.1744748436639 -20.25608332396141) rotate(397.38146582067714)"><path class="outline" fill="#A5ABB6" stroke="none" d="M 24.018736134675446,6.953439040707552 L 24.277555179777966,5.987513214418485 A 96.22771638672324 96.22771638672324 0 0 0 37.99164784649044,8.613382260358222 L 37.87534587631878,9.606596160650696 A 97.22771638672324 97.22771638672324 0 0 1 24.018736134675446,6.953439040707552 Z M 57.27621057031618,9.928979323765816 L 57.192972065662424,8.932449669744926 A 96.22771638672324 96.22771638672324 0 0 0 70.98673704080564,6.763677268566887 L 70.30698643426122,3.841702061125439 L 77.91797095925975,5.664588387870154 L 71.89307118286486,10.659644211822153 L 71.21332057632044,7.737669004380704 A 97.22771638672324 97.22771638672324 0 0 1 57.27621057031618,9.928979323765816"/><text text-anchor="middle" pointer-events="none" font-size="8px" fill="#000000" x="47.57602326033925" y="12.7530415313379" font-family="sans-serif">trek</text></g><g class="relationship" transform="translate(-91.91137877927314 41.83260199082565) rotate(336.25653953584765)"><path class="outline" fill="#A5ABB6" stroke="none" d="M 24.018736134675446,-6.953439040707552 L 24.277555179777966,-5.987513214418485 A 135.2068837972911 135.2068837972911 0 0 1 47.74834046585029,-10.102629306014308 L 47.6631130650997,-11.098990831847829 A 136.2068837972911 136.2068837972911 0 0 0 24.018736134675446,-6.953439040707552 Z M 67.05195528086024,-11.372185428948427 L 66.99483420644407,-10.373818170442064 A 135.2068837972911 135.2068837972911 0 0 1 90.5722451440237,-6.921625262633966 L 89.87774115437172,-4.003121500711174 L 97.49783792011887,-5.787533247099815 L 91.49825046355967,-10.812963611864355 L 90.8037464739077,-7.894459849941563 A 136.2068837972911 136.2068837972911 0 0 0 67.05195528086024,-11.372185428948427"/><text text-anchor="middle" pointer-events="none" font-size="8px" fill="#000000" x="57.35971086294466" y="-8.081106677522143" font-family="sans-serif">trek</text></g><g class="relationship" transform="translate(268.252015350374 147.42874667081165) rotate(334.7385850435762)"><path class="outline" fill="#A5ABB6" stroke="none" d="M 25 0.5 L 48.16736846718803 0.5 L 48.16736846718803 -0.5 L 25 -0.5 Z M 67.50330596718803 0.5 L 90.67067443437605 0.5 L 90.67067443437605 3.5 L 97.67067443437605 0 L 90.67067443437605 -3.5 L 90.67067443437605 -0.5 L 67.50330596718803 -0.5 Z"/><text text-anchor="middle" pointer-events="none" font-size="8px" fill="#000000" x="57.83533721718803" y="3" font-family="sans-serif">trek</text></g><g class="relationship" transform="translate(-83.00917413592069 -120.01819327535962) rotate(285.4890553347926)"><path class="outline" fill="#A5ABB6" stroke="none" d="M 25 0.5 L 47.84714215530457 0.5 L 47.84714215530457 -0.5 L 25 -0.5 Z M 67.18307965530457 0.5 L 90.03022181060913 0.5 L 90.03022181060913 3.5 L 97.03022181060913 0 L 90.03022181060913 -3.5 L 90.03022181060913 -0.5 L 67.18307965530457 -0.5 Z"/><text text-anchor="middle" pointer-events="none" font-size="8px" fill="#000000" x="57.51511090530457" y="3" font-family="sans-serif">trek</text></g><g class="relationship" transform="translate(148.76298835187546 211.36220414973204) rotate(498.6426030026485)"><path class="outline" fill="#A5ABB6" stroke="none" d="M 24.018736134675446,-6.953439040707552 L 24.277555179777966,-5.987513214418485 A 158.69128294694946 158.69128294694946 0 0 1 53.67585080287739,-10.964808441231327 L 53.602286392290154,-11.962098909196897 A 159.69128294694946 159.69128294694946 0 0 0 24.018736134675446,-6.953439040707552 Z M 72.98542157817661,-12.212138785756196 L 72.93760719570646,-11.213282547437075 A 158.69128294694946 158.69128294694946 0 0 1 102.45451184000179,-6.995985600626525 L 101.75306252937636,-4.079143324358725 L 109.37738536973089,-5.84541092187851 L 103.38977758750235,-10.885108635650258 L 102.68832827687693,-7.968266359382459 A 159.69128294694946 159.69128294694946 0 0 0 72.98542157817661,-12.212138785756196"/><text text-anchor="middle" pointer-events="none" font-size="8px" fill="#000000" x="63.29650587392263" y="-8.881543970105952" transform="rotate(180 63.29650587392263 -11.881543970105952)" font-family="sans-serif">trek</text></g><g class="relationship" transform="translate(48.4191283414297 299.69469942512984) rotate(371.05567568125434)"><path class="outline" fill="#A5ABB6" stroke="none" d="M 21.40063509461097,12.933012701892217 L 21.90063509461097,12.06698729810778 A 50.51191591363 50.51191591363 0 0 0 35.98428318875813,17.583253181751978 L 35.76310151982735,18.558485804939387 A 51.51191591363 51.51191591363 0 0 1 21.40063509461097,12.933012701892217 Z M 55.160991334607345,19.208602008035 L 55.0056020787194,18.220748689391698 A 50.51191591363 50.51191591363 0 0 0 69.42698513405185,13.659822937945895 L 68.1043036431712,10.967145149260112 L 75.93034688946545,11.022345757338694 L 71.19056045522605,17.25005998952694 L 69.86787896434541,14.557382200841156 A 51.51191591363 51.51191591363 0 0 1 55.160991334607345,19.208602008035"/><text text-anchor="middle" pointer-events="none" font-size="8px" fill="#000000" x="45.44789877190754" y="22.305675607758978" font-family="sans-serif">trek</text></g><g class="relationship" transform="translate(148.76298835187546 211.36220414973204) rotate(498.6426030026485)"><path class="outline" fill="#A5ABB6" stroke="none" d="M 24.018736134675446,6.953439040707552 L 24.277555179777966,5.987513214418485 A 158.69128294694946 158.69128294694946 0 0 0 40.2493060700179,9.39710497776818 L 40.091133705650705,10.384516494386503 A 159.69128294694946 159.69128294694946 0 0 1 24.018736134675446,6.953439040707552 Z M 86.53277276004661,10.983607486891572 L 86.40012374583033,9.99244441300948 A 158.69128294694946 158.69128294694946 0 0 0 102.45451184000179,6.995985600626525 L 101.75306252937636,4.079143324358725 L 109.37738536973089,5.84541092187851 L 103.38977758750235,10.885108635650258 L 102.68832827687693,7.968266359382459 A 159.69128294694946 159.69128294694946 0 0 1 86.53277276004661,10.983607486891572"/><text text-anchor="middle" pointer-events="none" font-size="8px" fill="#000000" x="63.29650587392264" y="14.881543970105952" transform="rotate(180 63.29650587392264 11.881543970105952)" font-family="sans-serif">twowheeler</text></g><g class="relationship" transform="translate(48.4191283414297 299.69469942512984) rotate(371.05567568125434)"><path class="outline" fill="#A5ABB6" stroke="none" d="M 25 0.5 L 34.6788048559235 0.5 L 34.6788048559235 -0.5 L 25 -0.5 Z M 56.6905236059235 0.5 L 66.369328461847 0.5 L 66.369328461847 3.5 L 73.369328461847 0 L 66.369328461847 -3.5 L 66.369328461847 -0.5 L 56.6905236059235 -0.5 Z"/><text text-anchor="middle" pointer-events="none" font-size="8px" fill="#000000" x="45.6846642309235" y="3" font-family="sans-serif">road</text></g><g class="relationship" transform="translate(48.4191283414297 299.69469942512984) rotate(371.05567568125434)"><path class="outline" fill="#A5ABB6" stroke="none" d="M 21.40063509461097,-12.933012701892217 L 21.90063509461097,-12.06698729810778 A 50.51191591363 50.51191591363 0 0 1 23.431922298423235,-12.916035221382685 L 22.962237664136754,-13.79886948913353 A 51.51191591363 51.51191591363 0 0 0 21.40063509461097,-12.933012701892217 Z M 68.25180767210786,-15.316739915997253 L 67.84228660797092,-14.404439253919143 A 50.51191591363 50.51191591363 0 0 1 69.42698513405185,-13.659822937945895 L 68.1043036431712,-10.967145149260112 L 75.93034688946545,-11.022345757338694 L 71.19056045522605,-17.25005998952694 L 69.86787896434541,-14.557382200841156 A 51.51191591363 51.51191591363 0 0 0 68.25180767210786,-15.316739915997253"/><text text-anchor="middle" pointer-events="none" font-size="8px" fill="#000000" x="45.44789877190754" y="-16.305675607758978" font-family="sans-serif">twowheeler</text></g><g class="relationship" transform="translate(-173.1744748436639 -20.25608332396141) rotate(451.64205873228167)"><path class="outline" fill="#A5ABB6" stroke="none" d="M 24.018736134675446,-6.953439040707552 L 24.277555179777966,-5.987513214418485 A 142.2119139101195 142.2119139101195 0 0 1 36.11372276413617,-8.623775624736112 L 35.938132804831895,-9.608239014706271 A 143.2119139101195 143.2119139101195 0 0 0 24.018736134675446,-6.953439040707552 Z M 82.35572787722222,-10.244782865483899 L 82.20719958543238,-9.255874706685518 A 142.2119139101195 142.2119139101195 0 0 1 94.11120697741846,-6.945171222331441 L 93.41450374498545,-4.027191680607853 L 101.03594311351233,-5.805860270275028 L 95.04014462066247,-10.835810611296225 L 94.34344138822946,-7.917831069572637 A 143.2119139101195 143.2119139101195 0 0 0 82.35572787722222,-10.244782865483899"/><text text-anchor="middle" pointer-events="none" font-size="8px" fill="#000000" x="59.12782290765788" y="-8.319849519864277" transform="rotate(180 59.12782290765788 -11.319849519864277)" font-family="sans-serif">twowheeler</text></g><g class="relationship" transform="translate(-176.76650017206768 105.04487992505751) rotate(323.3159681818064)"><path class="outline" fill="#A5ABB6" stroke="none" d="M 21.40063509461097,12.933012701892217 L 21.90063509461097,12.06698729810778 A 58.23991232196968 58.23991232196968 0 0 0 26.912216862574088,14.645530714680959 L 26.498267503245685,15.55583062565075 A 59.23991232196968 59.23991232196968 0 0 1 21.40063509461097,12.933012701892217 Z M 72.12408788453311,16.983240819854643 L 71.76785007455393,16.04884549519744 A 58.23991232196968 58.23991232196968 0 0 0 76.93081358987847,13.788614155807423 L 75.59615040266199,11.101855108797594 L 83.42236189743748,11.122193226803958 L 78.7103645061671,17.37095955182053 L 77.37570131895062,14.6842005048107 A 59.23991232196968 59.23991232196968 0 0 1 72.12408788453311,16.983240819854643"/><text text-anchor="middle" pointer-events="none" font-size="8px" fill="#000000" x="49.183803521813516" y="23.34093098106576" font-family="sans-serif">twowheeler</text></g><g class="relationship" transform="translate(-173.1744748436639 -20.25608332396141) rotate(451.64205873228167)"><path class="outline" fill="#A5ABB6" stroke="none" d="M 24.018736134675446,6.953439040707552 L 24.277555179777966,5.987513214418485 A 142.2119139101195 142.2119139101195 0 0 0 49.51332789706581,10.361719789886081 L 49.4319607406513,11.358403985535318 A 143.2119139101195 143.2119139101195 0 0 1 24.018736134675446,6.953439040707552 Z M 68.81898176692313,11.624266294858415 L 68.76497596101245,10.62572567328715 A 142.2119139101195 142.2119139101195 0 0 0 94.11120697741846,6.945171222331441 L 93.41450374498545,4.027191680607853 L 101.03594311351233,5.805860270275028 L 95.04014462066247,10.835810611296225 L 94.34344138822946,7.917831069572637 A 143.2119139101195 143.2119139101195 0 0 1 68.81898176692313,11.624266294858415"/><text text-anchor="middle" pointer-events="none" font-size="8px" fill="#000000" x="59.127822907657894" y="14.319849519864277" transform="rotate(180 59.127822907657894 11.319849519864277)" font-family="sans-serif">trek</text></g><g class="relationship" transform="translate(-176.76650017206768 105.04487992505751) rotate(323.3159681818064)"><path class="outline" fill="#A5ABB6" stroke="none" d="M 25 0.5 L 39.738041561259706 0.5 L 39.738041561259706 -0.5 L 25 -0.5 Z M 59.073979061259706 0.5 L 73.81202062251941 0.5 L 73.81202062251941 3.5 L 80.81202062251941 0 L 73.81202062251941 -3.5 L 73.81202062251941 -0.5 L 59.073979061259706 -0.5 Z"/><text text-anchor="middle" pointer-events="none" font-size="8px" fill="#000000" x="49.406010311259706" y="3" font-family="sans-serif">trek</text></g><g class="relationship" transform="translate(-176.76650017206768 105.04487992505751) rotate(323.3159681818064)"><path class="outline" fill="#A5ABB6" stroke="none" d="M 21.40063509461097,-12.933012701892217 L 21.90063509461097,-12.06698729810778 A 58.23991232196968 58.23991232196968 0 0 1 38.388175606920214,-18.483146972273765 L 38.17127253916078,-19.459340118734318 A 59.23991232196968 59.23991232196968 0 0 0 21.40063509461097,-12.933012701892217 Z M 60.2299057841617,-20.149447555729203 L 60.074447847652394,-19.161605042989308 A 58.23991232196968 58.23991232196968 0 0 1 76.93081358987847,-13.788614155807423 L 75.59615040266199,-11.101855108797594 L 83.42236189743748,-11.122193226803958 L 78.7103645061671,-17.37095955182053 L 77.37570131895062,-14.6842005048107 A 59.23991232196968 59.23991232196968 0 0 0 60.2299057841617,-20.149447555729203"/><text text-anchor="middle" pointer-events="none" font-size="8px" fill="#000000" x="49.18380352181351" y="-17.34093098106576" font-family="sans-serif">road</text></g><g class="relationship" transform="translate(48.4191283414297 299.69469942512984) rotate(418.7059518409269)"><path class="outline" fill="#A5ABB6" stroke="none" d="M 25 0.5 L 47.325649046225074 0.5 L 47.325649046225074 -0.5 L 25 -0.5 Z M 66.66158654622507 0.5 L 88.98723559245015 0.5 L 88.98723559245015 3.5 L 95.98723559245015 0 L 88.98723559245015 -3.5 L 88.98723559245015 -0.5 L 66.66158654622507 -0.5 Z"/><text text-anchor="middle" pointer-events="none" font-size="8px" fill="#000000" x="56.993617796225074" y="3" font-family="sans-serif">trek</text></g><g class="relationship" transform="translate(111.2635702964315 403.0798399999119) rotate(345.6826106930848)"><path class="outline" fill="#A5ABB6" stroke="none" d="M 25 0.5 L 51.42622126046254 0.5 L 51.42622126046254 -0.5 L 25 -0.5 Z M 70.76215876046254 0.5 L 97.18838002092508 0.5 L 97.18838002092508 3.5 L 104.18838002092508 0 L 97.18838002092508 -3.5 L 97.18838002092508 -0.5 L 70.76215876046254 -0.5 Z"/><text text-anchor="middle" pointer-events="none" font-size="8px" fill="#000000" x="61.09419001046254" y="3" font-family="sans-serif">trek</text></g><g class="relationship" transform="translate(-176.76650017206768 105.04487992505751) rotate(361.7924075365573)"><path class="outline" fill="#A5ABB6" stroke="none" d="M 25 0.5 L 48.53977252636531 0.5 L 48.53977252636531 -0.5 L 25 -0.5 Z M 67.87571002636531 0.5 L 91.41548255273062 0.5 L 91.41548255273062 3.5 L 98.41548255273062 0 L 91.41548255273062 -3.5 L 91.41548255273062 -0.5 L 67.87571002636531 -0.5 Z"/><text text-anchor="middle" pointer-events="none" font-size="8px" fill="#000000" x="58.20774127636531" y="3" font-family="sans-serif">trek</text></g><g class="relationship" transform="translate(-53.411403094624085 108.90510773411545) rotate(302.1582357348127)"><path class="outline" fill="#A5ABB6" stroke="none" d="M 25 0.5 L 55.414841280019346 0.5 L 55.414841280019346 -0.5 L 25 -0.5 Z M 74.75077878001935 0.5 L 105.16562006003869 0.5 L 105.16562006003869 3.5 L 112.16562006003869 0 L 105.16562006003869 -3.5 L 105.16562006003869 -0.5 L 74.75077878001935 -0.5 Z"/><text text-anchor="middle" pointer-events="none" font-size="8px" fill="#000000" x="65.08281003001935" y="3" font-family="sans-serif">trek</text></g></g><g class="layer nodes"><g class="node" transform="translate(299.8412470635592,31.816340302631225)"><circle class="outline" cx="0" cy="0" r="25" fill="#F79767" stroke="#f36924" stroke-width="2px"/><text text-anchor="middle" pointer-events="none" font-family="sans-serif" dy="1.5625" font-size="25" fill="#FFFFFF"/><text text-anchor="middle" pointer-events="none" y="5" font-size="10px" fill="#FFFFFF" font-family="sans-serif"> Darjeeling</text></g><g class="node" transform="translate(236.4394525615638,371.13244524577436)"><circle class="outline" cx="0" cy="0" r="25" fill="#57C7E3" stroke="#23b3d7" stroke-width="2px"/><text text-anchor="middle" pointer-events="none" font-family="sans-serif" dy="1.5625" font-size="25" fill="#2A2C34"/><text text-anchor="middle" pointer-events="none" y="5" font-size="10px" fill="#2A2C34" font-family="sans-serif"> Sandak…</text></g><g class="node" transform="translate(10.28818497391887,-172.05250059286254)"><circle class="outline" cx="0" cy="0" r="25" fill="#F79767" stroke="#f36924" stroke-width="2px"/><text text-anchor="middle" pointer-events="none" font-family="sans-serif" dy="1.5625" font-size="25" fill="#FFFFFF"/><text text-anchor="middle" pointer-events="none" y="5" font-size="10px" fill="#FFFFFF" font-family="sans-serif"> Darjeeling</text></g><g class="node" transform="translate(19.59627712890313,-7.216750478858748)"><circle class="outline" cx="0" cy="0" r="25" fill="#57C7E3" stroke="#23b3d7" stroke-width="2px"/><text text-anchor="middle" pointer-events="none" font-family="sans-serif" dy="1.5625" font-size="25" fill="#2A2C34"/><text text-anchor="middle" pointer-events="none" y="5" font-size="10px" fill="#2A2C34" font-family="sans-serif"> Sandak…</text></g><g class="node" transform="translate(379.19171070884863,95.07916825843547)"><circle class="outline" cx="0" cy="0" r="25" fill="#F16667" stroke="#eb2728" stroke-width="2px"/><text text-anchor="middle" pointer-events="none" font-family="sans-serif" dy="1.5625" font-size="25" fill="#FFFFFF"/><text text-anchor="middle" pointer-events="none" y="5" font-size="10px" fill="#FFFFFF" font-family="sans-serif"> Tumbling</text></g><g class="node" transform="translate(410.12822101464303,201.85683472041623)"><circle class="outline" cx="0" cy="0" r="25" fill="#F16667" stroke="#eb2728" stroke-width="2px"/><text text-anchor="middle" pointer-events="none" font-family="sans-serif" dy="1.5625" font-size="25" fill="#FFFFFF"/><text text-anchor="middle" pointer-events="none" y="5" font-size="10px" fill="#FFFFFF" font-family="sans-serif"> Gairibus</text></g><g class="node" transform="translate(310.1387843073137,264.8274568281843)"><circle class="outline" cx="0" cy="0" r="25" fill="#F16667" stroke="#eb2728" stroke-width="2px"/><text text-anchor="middle" pointer-events="none" font-family="sans-serif" dy="1.5625" font-size="25" fill="#FFFFFF"/><text text-anchor="middle" pointer-events="none" y="5" font-size="10px" fill="#FFFFFF" font-family="sans-serif"> BhikeBh…</text></g><g class="node" transform="translate(-50.42047890484751,-237.61645847635097)"><circle class="outline" cx="0" cy="0" r="25" fill="#F16667" stroke="#eb2728" stroke-width="2px"/><text text-anchor="middle" pointer-events="none" font-family="sans-serif" dy="1.5625" font-size="25" fill="#FFFFFF"/><text text-anchor="middle" pointer-events="none" y="5" font-size="10px" fill="#FFFFFF" font-family="sans-serif"> Tumbling</text></g><g class="node" transform="translate(77.21390860766437,-225.90803569855)"><circle class="outline" cx="0" cy="0" r="25" fill="#F16667" stroke="#eb2728" stroke-width="2px"/><text text-anchor="middle" pointer-events="none" font-family="sans-serif" dy="1.5625" font-size="25" fill="#FFFFFF"/><text text-anchor="middle" pointer-events="none" y="5" font-size="10px" fill="#FFFFFF" font-family="sans-serif"> Gairibus</text></g><g class="node" transform="translate(51.09229733144123,-108.39336728460191)"><circle class="outline" cx="0" cy="0" r="25" fill="#F16667" stroke="#eb2728" stroke-width="2px"/><text text-anchor="middle" pointer-events="none" font-family="sans-serif" dy="1.5625" font-size="25" fill="#FFFFFF"/><text text-anchor="middle" pointer-events="none" y="5" font-size="10px" fill="#FFFFFF" font-family="sans-serif"> BhikeBh…</text></g><g class="node" transform="translate(268.252015350374,147.42874667081165)"><circle class="outline" cx="0" cy="0" r="25" fill="#F79767" stroke="#f36924" stroke-width="2px"/><text text-anchor="middle" pointer-events="none" font-family="sans-serif" dy="1.5625" font-size="25" fill="#FFFFFF"/><text text-anchor="middle" pointer-events="none" y="5" font-size="10px" fill="#FFFFFF" font-family="sans-serif"> Rimbik</text></g><g class="node" transform="translate(148.76298835187546,211.36220414973204)"><circle class="outline" cx="0" cy="0" r="25" fill="#F16667" stroke="#eb2728" stroke-width="2px"/><text text-anchor="middle" pointer-events="none" font-family="sans-serif" dy="1.5625" font-size="25" fill="#FFFFFF"/><text text-anchor="middle" pointer-events="none" y="5" font-size="10px" fill="#FFFFFF" font-family="sans-serif"> Sirikhola</text></g><g class="node" transform="translate(144.96285057243605,318.55827490320485)"><circle class="outline" cx="0" cy="0" r="25" fill="#F16667" stroke="#eb2728" stroke-width="2px"/><text text-anchor="middle" pointer-events="none" font-family="sans-serif" dy="1.5625" font-size="25" fill="#FFFFFF"/><text text-anchor="middle" pointer-events="none" y="5" font-size="10px" fill="#FFFFFF" font-family="sans-serif"> Gurdum</text></g><g class="node" transform="translate(-83.00917413592069,-120.01819327535962)"><circle class="outline" cx="0" cy="0" r="25" fill="#F79767" stroke="#f36924" stroke-width="2px"/><text text-anchor="middle" pointer-events="none" font-family="sans-serif" dy="1.5625" font-size="25" fill="#FFFFFF"/><text text-anchor="middle" pointer-events="none" y="5" font-size="10px" fill="#FFFFFF" font-family="sans-serif"> Rimbik</text></g><g class="node" transform="translate(-173.1744748436639,-20.25608332396141)"><circle class="outline" cx="0" cy="0" r="25" fill="#F16667" stroke="#eb2728" stroke-width="2px"/><text text-anchor="middle" pointer-events="none" font-family="sans-serif" dy="1.5625" font-size="25" fill="#FFFFFF"/><text text-anchor="middle" pointer-events="none" y="5" font-size="10px" fill="#FFFFFF" font-family="sans-serif"> Sirikhola</text></g><g class="node" transform="translate(-91.91137877927314,41.83260199082565)"><circle class="outline" cx="0" cy="0" r="25" fill="#F16667" stroke="#eb2728" stroke-width="2px"/><text text-anchor="middle" pointer-events="none" font-family="sans-serif" dy="1.5625" font-size="25" fill="#FFFFFF"/><text text-anchor="middle" pointer-events="none" y="5" font-size="10px" fill="#FFFFFF" font-family="sans-serif"> Gurdum</text></g><g class="node" transform="translate(48.4191283414297,299.69469942512984)"><circle class="outline" cx="0" cy="0" r="25" fill="#F16667" stroke="#eb2728" stroke-width="2px"/><text text-anchor="middle" pointer-events="none" font-family="sans-serif" dy="1.5625" font-size="25" fill="#FFFFFF"/><text text-anchor="middle" pointer-events="none" y="5" font-size="10px" fill="#FFFFFF" font-family="sans-serif"> Rammam</text></g><g class="node" transform="translate(-176.76650017206768,105.04487992505751)"><circle class="outline" cx="0" cy="0" r="25" fill="#F16667" stroke="#eb2728" stroke-width="2px"/><text text-anchor="middle" pointer-events="none" font-family="sans-serif" dy="1.5625" font-size="25" fill="#FFFFFF"/><text text-anchor="middle" pointer-events="none" y="5" font-size="10px" fill="#FFFFFF" font-family="sans-serif"> Rammam</text></g><g class="node" transform="translate(111.2635702964315,403.0798399999119)"><circle class="outline" cx="0" cy="0" r="25" fill="#57C7E3" stroke="#23b3d7" stroke-width="2px"/><text text-anchor="middle" pointer-events="none" font-family="sans-serif" dy="1.5625" font-size="25" fill="#2A2C34"/><text text-anchor="middle" pointer-events="none" y="5" font-size="10px" fill="#2A2C34" font-family="sans-serif"> Sabargr…</text></g><g class="node" transform="translate(-53.411403094624085,108.90510773411545)"><circle class="outline" cx="0" cy="0" r="25" fill="#57C7E3" stroke="#23b3d7" stroke-width="2px"/><text text-anchor="middle" pointer-events="none" font-family="sans-serif" dy="1.5625" font-size="25" fill="#2A2C34"/><text text-anchor="middle" pointer-events="none" y="5" font-size="10px" fill="#2A2C34" font-family="sans-serif"> Sabargr…</text></g></g></svg>