<svg xmlns="http://www.w3.org/2000/svg" width="379.3924255371094" height="371.1553039550781" viewBox="-91.9198226928711 -82.48786163330078 379.3924255371094 371.1553039550781"><title>Neo4j Graph Visualization</title><desc>Created using Neo4j (http://www.neo4j.com/)</desc><g class="layer relationships"><g class="relationship" transform="translate(150.65284340296938 259.6674521807664) rotate(306.46575485234735)"><path class="outline" fill="#A5ABB6" stroke="none" d="M 24.018736134675446,6.953439040707552 L 24.277555179777966,5.987513214418485 A 100.09502177531198 100.09502177531198 0 0 0 25.479036182888652,6.301474015119368 L 25.232220541969486,7.270536468936285 A 101.09502177531198 101.09502177531198 0 0 1 24.018736134675446,6.953439040707552 Z M 71.92421958568414,8.032922200849725 L 71.70917273106431,7.056318468357304 A 100.09502177531198 100.09502177531198 0 0 0 72.92026322342744,6.781750071559479 L 72.23882443601349,3.8601681064235014 L 79.85086093998038,5.6786565617829226 L 73.8288482733127,10.677192691740784 L 73.14740948589875,7.7556107266048055 A 101.09502177531198 101.09502177531198 0 0 1 71.92421958568414,8.032922200849725"/><text text-anchor="middle" pointer-events="none" font-size="8px" fill="#000000" x="48.54175917173411" y="12.884761601187847" font-family="sans-serif">DIRECTED</text></g><g class="relationship" transform="translate(150.65284340296938 259.6674521807664) rotate(306.46575485234735)"><path class="outline" fill="#A5ABB6" stroke="none" d="M 24.018736134675446,-6.953439040707552 L 24.277555179777966,-5.987513214418485 A 100.09502177531198 100.09502177531198 0 0 1 30.873866662826682,-7.517860784502062 L 30.68094811273435,-8.49907555866227 A 101.09502177531198 101.09502177531198 0 0 0 24.018736134675446,-6.953439040707552 Z M 66.43828811694605,-9.082920465470963 L 66.27750636235193,-8.095930482041723 A 100.09502177531198 100.09502177531198 0 0 1 72.92026322342744,-6.781750071559479 L 72.23882443601349,-3.8601681064235014 L 79.85086093998038,-5.6786565617829226 L 73.8288482733127,-10.677192691740784 L 73.14740948589875,-7.7556107266048055 A 101.09502177531198 101.09502177531198 0 0 0 66.43828811694605,-9.082920465470963"/><text text-anchor="middle" pointer-events="none" font-size="8px" fill="#000000" x="48.541759171734085" y="-6.884761601187847" font-family="sans-serif">WROTE</text></g><g class="relationship" transform="translate(258.47259541574596 82.23282250636578) rotate(476.108957872048)"><path class="outline" fill="#A5ABB6" stroke="none" d="M 24.018736134675446,6.953439040707552 L 24.277555179777966,5.987513214418485 A 100.25755799450313 100.25755799450313 0 0 0 25.518675713589023,6.311575141486813 L 25.272235989892664,7.280733262014351 A 101.25755799450313 101.25755799450313 0 0 1 24.018736134675446,6.953439040707552 Z M 71.9652392693517,8.042578181137856 L 71.75054795054362,7.065896227977845 A 100.25755799450313 100.25755799450313 0 0 0 73.00157985542475,6.782496360313479 L 72.32007135750838,3.860930655546978 L 79.93215124953265,5.6792374826363785 L 73.91025785264658,10.677917300002147 L 73.22874935473021,7.756351595235646 A 101.25755799450313 101.25755799450313 0 0 1 71.9652392693517,8.042578181137856"/><text text-anchor="middle" pointer-events="none" font-size="8px" fill="#000000" x="48.58237501513253" y="12.890297844133627" transform="rotate(180 48.58237501513253 9.890297844133627)" font-family="sans-serif">DIRECTED</text></g><g class="relationship" transform="translate(258.47259541574596 82.23282250636578) rotate(476.108957872048)"><path class="outline" fill="#A5ABB6" stroke="none" d="M 24.018736134675446,-6.953439040707552 L 24.277555179777966,-5.987513214418485 A 100.25755799450313 100.25755799450313 0 0 1 30.91396918630263,-7.526119914218867 L 30.72134379422015,-8.507392281263336 A 101.25755799450313 101.25755799450313 0 0 0 24.018736134675446,-6.953439040707552 Z M 66.47901415887598,-9.090815868818055 L 66.31850373499698,-8.103781723600079 A 100.25755799450313 100.25755799450313 0 0 1 73.00157985542475,-6.782496360313479 L 72.32007135750838,-3.860930655546978 L 79.93215124953265,-5.6792374826363785 L 73.91025785264658,-10.677917300002147 L 73.22874935473021,-7.756351595235646 A 101.25755799450313 101.25755799450313 0 0 0 66.47901415887598,-9.090815868818055"/><text text-anchor="middle" pointer-events="none" font-size="8px" fill="#000000" x="48.582375015132534" y="-6.890297844133627" transform="rotate(180 48.582375015132534 -9.890297844133627)" font-family="sans-serif">WROTE</text></g><g class="relationship" transform="translate(144.49945050558338 -53.4878599398651) rotate(535.2044781713546)"><path class="outline" fill="#A5ABB6" stroke="none" d="M 21.40063509461097,12.933012701892217 L 21.90063509461097,12.06698729810778 A 56.685513734889994 56.685513734889994 0 0 0 23.843832459106668,13.138734456080947 L 23.378112775830687,14.023666756660674 A 57.685513734889994 57.685513734889994 0 0 1 21.40063509461097,12.933012701892217 Z M 73.82046262111851,15.6232117200447 L 73.41174526501733,14.710550708046455 A 56.685513734889994 56.685513734889994 0 0 0 75.41894129586582,13.76407193820922 L 74.086561239214,11.0761799417487 L 81.91275263038233,11.103167138765086 L 77.19544803806824,17.347927933489913 L 75.86306798141642,14.660035937029395 A 57.685513734889994 57.685513734889994 0 0 1 73.82046262111851,15.6232117200447"/><text text-anchor="middle" pointer-events="none" font-size="8px" fill="#000000" x="48.430929887576674" y="23.13267642199098" transform="rotate(180 48.430929887576674 20.13267642199098)" font-family="sans-serif">PRODUCED</text></g><g class="relationship" transform="translate(144.49945050558338 -53.4878599398651) rotate(535.2044781713546)"><path class="outline" fill="#A5ABB6" stroke="none" d="M 25 0.5 L 25.210613800443348 0.5 L 25.210613800443348 -0.5 L 25 -0.5 Z M 72.10123880044335 0.5 L 72.3118526008867 0.5 L 72.3118526008867 3.5 L 79.3118526008867 0 L 72.3118526008867 -3.5 L 72.3118526008867 -0.5 L 72.10123880044335 -0.5 Z"/><text text-anchor="middle" pointer-events="none" font-size="8px" fill="#000000" x="48.65592630044335" y="3" transform="rotate(180 48.65592630044335 0)" font-family="sans-serif">DIRECTED</text></g><g class="relationship" transform="translate(144.49945050558338 -53.4878599398651) rotate(535.2044781713546)"><path class="outline" fill="#A5ABB6" stroke="none" d="M 21.40063509461097,-12.933012701892217 L 21.90063509461097,-12.06698729810778 A 56.685513734889994 56.685513734889994 0 0 1 31.100077745556096,-16.331126311542008 L 30.76236687455596,-17.27237620801389 A 57.685513734889994 57.685513734889994 0 0 0 21.40063509461097,-12.933012701892217 Z M 66.24521552248103,-18.397550035470076 L 65.96781791388963,-17.436794829006033 A 56.685513734889994 56.685513734889994 0 0 1 75.41894129586582,-13.76407193820922 L 74.086561239214,-11.0761799417487 L 81.91275263038233,-11.103167138765086 L 77.19544803806824,-17.347927933489913 L 75.86306798141642,-14.660035937029395 A 57.685513734889994 57.685513734889994 0 0 0 66.24521552248103,-18.397550035470076"/><text text-anchor="middle" pointer-events="none" font-size="8px" fill="#000000" x="48.43092988757667" y="-17.13267642199098" transform="rotate(180 48.43092988757667 -20.13267642199098)" font-family="sans-serif">WROTE</text></g><g class="relationship" transform="translate(-62.919822860511744 97.54773264499742) rotate(433.21758808160394)"><path class="outline" fill="#A5ABB6" stroke="none" d="M 21.40063509461097,12.933012701892217 L 21.90063509461097,12.06698729810778 A 57.57533373196757 57.57533373196757 0 0 0 31.51769752283785,16.49531217758465 L 31.184731942004184,17.438251158632788 A 58.57533373196757 58.57533373196757 0 0 1 21.40063509461097,12.933012701892217 Z M 66.68085228641534,18.555157490447236 L 66.40782694781463,17.593150648225226 A 57.57533373196757 57.57533373196757 0 0 0 76.28426888387935,13.778200364126022 L 74.9505744735729,11.090960289269049 L 82.77677812693004,11.114120085887123 L 78.0625280976213,17.361187130601987 L 76.72883368731485,14.673947055745014 A 58.57533373196757 58.57533373196757 0 0 1 66.68085228641534,18.555157490447236"/><text text-anchor="middle" pointer-events="none" font-size="8px" fill="#000000" x="48.86183133700746" y="23.25189100900802" font-family="sans-serif">WROTE</text></g><g class="relationship" transform="translate(-62.919822860511744 97.54773264499742) rotate(433.21758808160394)"><path class="outline" fill="#A5ABB6" stroke="none" d="M 25 0.5 L 25.63991020870241 0.5 L 25.63991020870241 -0.5 L 25 -0.5 Z M 72.53053520870242 0.5 L 73.17044541740482 0.5 L 73.17044541740482 3.5 L 80.17044541740482 0 L 73.17044541740482 -3.5 L 73.17044541740482 -0.5 L 72.53053520870242 -0.5 Z"/><text text-anchor="middle" pointer-events="none" font-size="8px" fill="#000000" x="49.08522270870241" y="3" font-family="sans-serif">DIRECTED</text></g><g class="relationship" transform="translate(-62.919822860511744 97.54773264499742) rotate(433.21758808160394)"><path class="outline" fill="#A5ABB6" stroke="none" d="M 21.40063509461097,-12.933012701892217 L 21.90063509461097,-12.06698729810778 A 57.57533373196757 57.57533373196757 0 0 1 24.240920857092267,-13.346805842601881 L 23.781568224824014,-14.235059837373775 A 58.57533373196757 58.57533373196757 0 0 0 21.40063509461097,-12.933012701892217 Z M 74.27075222468025,-15.823731747160757 L 73.8681518678134,-14.908355893944893 A 57.57533373196757 57.57533373196757 0 0 1 76.28426888387935,-13.778200364126022 L 74.9505744735729,-11.090960289269049 L 82.77677812693004,-11.114120085887123 L 78.0625280976213,-17.361187130601987 L 76.72883368731485,-14.673947055745014 A 58.57533373196757 58.57533373196757 0 0 0 74.27075222468025,-15.823731747160757"/><text text-anchor="middle" pointer-events="none" font-size="8px" fill="#000000" x="48.86183133700745" y="-17.25189100900802" font-family="sans-serif">PRODUCED</text></g></g><g class="layer nodes"><g class="node" transform="translate(150.65284340296938,259.6674521807664)"><circle class="outline" cx="0" cy="0" r="25" fill="#57C7E3" stroke="#23b3d7" stroke-width="2px"/><text text-anchor="middle" pointer-events="none" font-family="sans-serif" dy="1.5625" font-size="25" fill="#2A2C34"/><text text-anchor="middle" pointer-events="none" font-family="sans-serif" dy="1.5625" font-size="25" fill="#2A2C34"/><text text-anchor="middle" pointer-events="none" x="0" y="0" font-size="10px" fill="#2A2C34" font-family="sans-serif"> Lilly</text><text text-anchor="middle" pointer-events="none" x="0" y="10" font-size="10px" fill="#2A2C34" font-family="sans-serif"> Wacho…</text></g><g class="node" transform="translate(212.5817442533904,175.87064628092767)"><circle class="outline" cx="0" cy="0" r="25" fill="#F79767" stroke="#f36924" stroke-width="2px"/><text text-anchor="middle" pointer-events="none" font-family="sans-serif" dy="1.5625" font-size="25" fill="#FFFFFF"/><text text-anchor="middle" pointer-events="none" font-family="sans-serif" dy="1.5625" font-size="25" fill="#FFFFFF"/><text text-anchor="middle" pointer-events="none" x="0" y="0" font-size="10px" fill="#FFFFFF" font-family="sans-serif"> Speed</text><text text-anchor="middle" pointer-events="none" x="0" y="10" font-size="10px" fill="#FFFFFF" font-family="sans-serif"> Racer</text></g><g class="node" transform="translate(258.47259541574596,82.23282250636578)"><circle class="outline" cx="0" cy="0" r="25" fill="#57C7E3" stroke="#23b3d7" stroke-width="2px"/><text text-anchor="middle" pointer-events="none" font-family="sans-serif" dy="1.5625" font-size="25" fill="#2A2C34"/><text text-anchor="middle" pointer-events="none" font-family="sans-serif" dy="1.5625" font-size="25" fill="#2A2C34"/><text text-anchor="middle" pointer-events="none" x="0" y="0" font-size="10px" fill="#2A2C34" font-family="sans-serif"> Lana</text><text text-anchor="middle" pointer-events="none" x="0" y="10" font-size="10px" fill="#2A2C34" font-family="sans-serif"> Wacho…</text></g><g class="node" transform="translate(144.49945050558338,-53.4878599398651)"><circle class="outline" cx="0" cy="0" r="25" fill="#57C7E3" stroke="#23b3d7" stroke-width="2px"/><text text-anchor="middle" pointer-events="none" font-family="sans-serif" dy="1.5625" font-size="25" fill="#2A2C34"/><text text-anchor="middle" pointer-events="none" font-family="sans-serif" dy="1.5625" font-size="25" fill="#2A2C34"/><text text-anchor="middle" pointer-events="none" x="0" y="0" font-size="10px" fill="#2A2C34" font-family="sans-serif"> Cameron</text><text text-anchor="middle" pointer-events="none" x="0" y="10" font-size="10px" fill="#2A2C34" font-family="sans-serif"> Crowe</text></g><g class="node" transform="translate(40.5527523547172,-44.76739340636905)"><circle class="outline" cx="0" cy="0" r="25" fill="#F79767" stroke="#f36924" stroke-width="2px"/><text text-anchor="middle" pointer-events="none" font-family="sans-serif" dy="1.5625" font-size="25" fill="#FFFFFF"/><text text-anchor="middle" pointer-events="none" font-family="sans-serif" dy="1.5625" font-size="25" fill="#FFFFFF"/><text text-anchor="middle" pointer-events="none" x="0" y="0" font-size="10px" fill="#FFFFFF" font-family="sans-serif"> Jerry</text><text text-anchor="middle" pointer-events="none" x="0" y="10" font-size="10px" fill="#FFFFFF" font-family="sans-serif"> Maguire</text></g><g class="node" transform="translate(-62.919822860511744,97.54773264499742)"><circle class="outline" cx="0" cy="0" r="25" fill="#57C7E3" stroke="#23b3d7" stroke-width="2px"/><text text-anchor="middle" pointer-events="none" font-family="sans-serif" dy="1.5625" font-size="25" fill="#2A2C34"/><text text-anchor="middle" pointer-events="none" font-family="sans-serif" dy="1.5625" font-size="25" fill="#2A2C34"/><text text-anchor="middle" pointer-events="none" x="0" y="0" font-size="10px" fill="#2A2C34" font-family="sans-serif"> Nancy</text><text text-anchor="middle" pointer-events="none" x="0" y="10" font-size="10px" fill="#2A2C34" font-family="sans-serif"> Meyers</text></g><g class="node" transform="translate(-32.55312772800167,198.23877701352365)"><circle class="outline" cx="0" cy="0" r="25" fill="#F79767" stroke="#f36924" stroke-width="2px"/><text text-anchor="middle" pointer-events="none" font-family="sans-serif" dy="1.5625" font-size="25" fill="#FFFFFF"/><text text-anchor="middle" pointer-events="none" x="0" y="5" font-size="10px" fill="#FFFFFF" font-family="sans-serif"> Somethi…</text></g></g></svg>